<?xml version="1.0" encoding="utf-8"?>
<!-- Generator: Adobe Illustrator 12.0.0, SVG Export Plug-In . SVG Version: 6.00 Build 51448)  -->
<!DOCTYPE svg PUBLIC "-//W3C//DTD SVG 1.0//EN" "http://www.w3.org/TR/2001/REC-SVG-20010904/DTD/svg10.dtd" [
	<!ENTITY ns_svg "http://www.w3.org/2000/svg">
	<!ENTITY ns_xlink "http://www.w3.org/1999/xlink">
]>
<svg  version="1.0" id="Layer_1" xmlns="&ns_svg;" xmlns:xlink="&ns_xlink;" width="529.819" height="355.82"
	 viewBox="0 0 529.819 355.82" overflow="visible" enable-background="new 0 0 529.819 355.82" xml:space="preserve">
<g id="XMLID_4_">
	<g>
		<polygon fill="#D3D3D3" points="504.01,97.14 504.02,97.13 528.819,66.52 528.819,86.92 504.04,117.51 504.04,97.18 504,97.15 		
			"/>
		<polygon fill="#D3D3D3" points="504,97.15 504.04,97.18 504.04,117.51 504.02,117.53 443.74,152.38 443.74,152.32 443.74,131.92 
					"/>
		<path fill="#D3D3D3" d="M463.96,60.7c0.12,4.34-1.44,8.04-4.05,11.13l-0.03-0.03c-15.04-17.17-56.85-17.19-71.88,0l-0.04,0.03
			c-2.38-2.86-3.891-6.26-4.101-10.23c0.641-16.84,25.811-23.37,39.301-23.16C436.84,37.98,462.22,43.96,463.96,60.7z"/>
		<path fill="#D3D3D3" d="M504.02,97.13l-0.01,0.01L504,97.15l-60.26,34.77l-0.051-0.03l-14.14-8.17l-53.89,31.14l-31.13,17.96
			l-113.32-65.47l85.03-49.05l-14.16-8.16l-0.011-0.03l60.25-34.77L415.42,1.06l0.01-0.02l113.39,65.48L504.02,97.13z M459.91,71.83
			c2.609-3.09,4.17-6.79,4.05-11.13c-1.74-16.74-27.12-22.72-40.8-22.26c-13.49-0.21-38.66,6.32-39.301,23.16
			c0.21,3.97,1.721,7.37,4.101,10.23c8.33,10.01,27.29,13.55,38.32,12.87C436.14,84.66,452.39,80.74,459.91,71.83z"/>
		<polygon fill="#D3D3D3" points="189.23,271.331 185.02,273.76 185.02,268.9 185.04,268.89 		"/>
		<polygon fill="#D3D3D3" points="171.67,261.2 171.7,261.22 171.7,269.35 171.67,269.36 167.44,266.9 167.44,258.76 167.45,258.74 
					"/>
		<polygon fill="#D3D3D3" points="256.72,220.27 256.72,220.3 237.33,231.49 171.7,269.35 171.7,261.22 171.67,261.2 256.72,212.14 
					"/>
		<polygon fill="#D3D3D3" points="135.67,240.38 135.7,240.4 135.7,248.59 135.67,248.6 131.44,246.14 131.44,238 131.45,237.98 		
			"/>
		<polygon fill="#D3D3D3" points="117.23,229.75 113.02,232.18 113.02,227.32 113.04,227.31 		"/>
		<polygon fill="#D3D3D3" points="54.1,324.22 54.1,332.35 54.04,332.38 45.58,332.38 45.58,324.22 54.04,324.22 		"/>
		<polygon fill="#D3D3D3" points="167.44,266.9 167.44,266.92 54.1,332.35 54.1,324.22 54.04,324.22 167.44,258.76 		"/>
		<polygon fill="#D3D3D3" points="42.73,325.82 42.76,325.84 42.76,333.97 42.73,333.98 37.06,330.73 37.06,322.541 37.08,322.53 		
			"/>
		<polygon fill="#D3D3D3" points="45.58,324.22 45.58,332.38 42.76,333.97 42.76,325.84 42.73,325.82 		"/>
		<polygon fill="#D3D3D3" points="167.45,258.74 167.44,258.76 54.04,324.22 45.58,324.22 42.73,325.82 37.08,322.53 39.94,320.86 
			39.94,316 149.02,253 153.23,250.57 149.04,248.13 207.54,214.28 226.87,203.09 233.99,198.97 234.04,199 256.72,212.14 
			171.67,261.2 		"/>
		<polygon fill="#D3D3D3" points="18.1,303.4 18.1,311.59 18.04,311.621 9.58,311.621 9.58,303.4 18.04,303.4 		"/>
		<polygon fill="#D3D3D3" points="6.73,305.06 6.76,305.081 6.76,313.21 6.73,313.22 1.06,309.92 1.06,301.78 1.08,301.77 		"/>
		<polygon fill="#D3D3D3" points="9.58,303.4 9.58,311.621 6.76,313.21 6.76,305.081 6.73,305.06 		"/>
		<polygon fill="#D3D3D3" points="189.23,271.331 185.02,273.76 185.02,268.9 185.04,268.89 		"/>
		<polygon fill="#D3D3D3" points="171.67,261.2 171.7,261.22 171.7,269.35 171.67,269.36 167.44,266.9 167.44,258.76 167.45,258.74 
					"/>
		<polygon fill="#D3D3D3" points="256.72,220.27 256.72,220.3 237.33,231.49 171.7,269.35 171.7,261.22 171.67,261.2 256.72,212.14 
					"/>
		<polygon fill="#D3D3D3" points="135.67,240.38 135.7,240.4 135.7,248.59 135.67,248.6 131.44,246.14 131.44,238 131.45,237.98 		
			"/>
		<polygon fill="#D3D3D3" points="117.23,229.75 113.02,232.18 113.02,227.32 113.04,227.31 		"/>
		<polygon fill="#D3D3D3" points="54.1,324.22 54.1,332.35 54.04,332.38 45.58,332.38 45.58,324.22 54.04,324.22 		"/>
		<polygon fill="#D3D3D3" points="42.73,325.82 42.76,325.84 42.76,333.97 42.73,333.98 37.06,330.73 37.06,322.541 37.08,322.53 		
			"/>
		<polygon fill="#D3D3D3" points="45.58,324.22 45.58,332.38 42.76,333.97 42.76,325.84 42.73,325.82 		"/>
		<polygon fill="#D3D3D3" points="167.45,258.74 167.44,258.76 54.04,324.22 45.58,324.22 42.73,325.82 37.08,322.53 39.94,320.86 
			39.94,316 149.02,253 153.23,250.57 149.04,248.13 207.54,214.28 226.87,203.09 233.99,198.97 234.04,199 256.72,212.14 
			171.67,261.2 		"/>
		<polygon fill="#D3D3D3" points="167.44,266.9 167.44,266.92 54.1,332.35 54.1,324.22 54.04,324.22 167.44,258.76 		"/>
		<polygon fill="#D3D3D3" points="18.1,303.4 18.1,311.59 18.04,311.621 9.58,311.621 9.58,303.4 18.04,303.4 		"/>
		<polygon fill="#D3D3D3" points="6.73,305.06 6.76,305.081 6.76,313.21 6.73,313.22 1.06,309.92 1.06,301.78 1.08,301.77 		"/>
		<polygon fill="#D3D3D3" points="9.58,303.4 9.58,311.621 6.76,313.21 6.76,305.081 6.73,305.06 		"/>
		<polygon fill="#D3D3D3" points="207.67,281.96 207.7,281.98 207.7,290.11 207.67,290.121 203.44,287.71 203.44,279.52 
			203.45,279.5 		"/>
		<polygon fill="#D3D3D3" points="292.72,241.03 292.72,241.06 273.33,252.25 207.7,290.11 207.7,281.98 207.67,281.96 
			292.72,232.9 		"/>
		<polygon fill="#D3D3D3" points="90.1,344.98 90.1,353.11 90.04,353.14 81.58,353.14 81.58,344.98 90.04,344.98 		"/>
		<polygon fill="#D3D3D3" points="90.04,344.98 203.44,279.52 203.44,287.71 203.44,287.74 90.1,353.11 90.1,344.98 		"/>
		<polygon fill="#D3D3D3" points="78.73,346.581 78.76,346.6 78.76,354.791 78.73,354.8 73.06,351.5 73.06,343.36 73.08,343.35 		
			"/>
		<polygon fill="#D3D3D3" points="81.58,344.98 81.58,353.14 78.76,354.791 78.76,346.6 78.73,346.581 		"/>
		<polygon fill="#D3D3D3" points="81.58,344.98 78.73,346.581 73.08,343.35 75.88,341.68 75.88,336.82 185.02,273.76 
			189.23,271.331 185.04,268.89 243.52,235.09 262.92,223.88 269.99,219.791 270.04,219.82 292.72,232.9 207.67,281.96 
			203.45,279.5 203.44,279.52 90.04,344.98 		"/>
		<polygon fill="#D3D3D3" points="131.44,246.14 131.44,246.16 18.1,311.59 18.1,303.4 18.04,303.4 131.44,238 		"/>
		<polygon fill="#D3D3D3" points="131.45,237.98 131.44,238 18.04,303.4 9.58,303.4 6.73,305.06 1.08,301.77 3.94,300.1 
			3.94,295.24 113.02,232.18 117.23,229.75 113.04,227.31 179,189.18 190.92,182.3 197.99,178.21 198.04,178.24 220.72,191.32 
			135.67,240.38 		"/>
		<polygon fill="#333333" points="220.72,199.51 226.87,203.09 207.54,214.28 201.38,210.7 220.72,199.54 		"/>
		<polygon fill="#333333" points="256.72,220.27 262.92,223.88 243.52,235.09 237.33,231.49 256.72,220.3 		"/>
		<polygon fill="#333333" points="176.68,174.07 190.92,182.3 179,189.18 176.68,174.1 		"/>
		<polygon fill="#333333" points="197.99,178.21 190.92,182.3 176.68,174.07 176.08,165.58 		"/>
		<polygon fill="#333333" points="233.99,198.97 226.87,203.09 220.72,199.51 220.72,191.32 		"/>
		<polygon fill="#D3D3D3" points="201.38,210.7 135.7,248.59 135.7,240.4 135.67,240.38 220.72,191.32 220.72,199.51 220.72,199.54 
					"/>
		<polygon fill="#333333" points="269.99,219.791 262.92,223.88 256.72,220.27 256.72,212.14 		"/>
		<polygon fill="#333333" points="270.04,219.82 269.99,219.791 256.72,212.14 234.04,199 233.99,198.97 220.72,191.32 
			198.04,178.24 197.99,178.21 176.08,165.58 176.08,143.32 176.08,143.26 177.64,121.96 319.359,203.8 317.8,225.1 314.68,245.56 
			292.72,232.9 		"/>
		<polygon fill="#333333" points="314.68,245.56 314.08,253.42 292.72,241.03 292.72,232.9 		"/>
		<polygon fill="#333333" points="292.72,241.06 292.72,241.03 314.08,253.42 314.08,275.77 314.05,275.78 273.33,252.25 		"/>
		<polygon fill="#333333" points="317.8,225.16 443.74,152.32 443.74,152.38 434.08,206.5 314.08,275.77 314.08,253.42 
			314.68,245.56 317.8,225.1 		"/>
		<polygon fill="#333333" points="443.74,131.92 443.74,152.32 317.8,225.16 317.8,225.1 319.359,203.8 443.689,131.89 		"/>
		<polygon fill="#333333" points="344.53,172.82 344.56,172.84 375.66,154.86 429.58,123.76 443.689,131.89 319.359,203.8 
			177.64,121.96 302.01,50.12 302.02,50.14 302.069,50.11 302.08,50.14 316.24,58.3 231.21,107.35 		"/>
	</g>
	<g>
		
			<polyline fill="none" stroke="#000000" stroke-width="2" stroke-linecap="round" stroke-linejoin="round" stroke-miterlimit="10" points="
			75.88,336.82 185.02,273.76 189.23,271.331 189.28,271.3 		"/>
		
			<polyline fill="none" stroke="#000000" stroke-width="2" stroke-linecap="round" stroke-linejoin="round" stroke-miterlimit="10" points="
			189.28,271.36 189.23,271.331 185.04,268.89 184.96,268.84 		"/>
		
			<polyline fill="none" stroke="#000000" stroke-width="2" stroke-linecap="round" stroke-linejoin="round" stroke-miterlimit="10" points="
			78.76,346.6 78.73,346.581 73.08,343.35 73,343.3 		"/>
		
			<polyline fill="none" stroke="#000000" stroke-width="2" stroke-linecap="round" stroke-linejoin="round" stroke-miterlimit="10" points="
			73.06,343.36 73.08,343.35 75.88,341.68 		"/>
		
			<polyline fill="none" stroke="#000000" stroke-width="2" stroke-linecap="round" stroke-linejoin="round" stroke-miterlimit="10" points="
			75.88,341.74 75.88,341.68 75.88,336.82 75.88,336.76 		"/>
		
			<polyline fill="none" stroke="#000000" stroke-width="2" stroke-linecap="round" stroke-linejoin="round" stroke-miterlimit="10" points="
			185.02,268.9 185.04,268.89 243.52,235.09 262.92,223.88 269.99,219.791 270.04,219.76 		"/>
		
			<polyline fill="none" stroke="#000000" stroke-width="2" stroke-linecap="round" stroke-linejoin="round" stroke-miterlimit="10" points="
			203.44,279.52 203.44,287.71 203.44,287.74 		"/>
		
			<line fill="none" stroke="#000000" stroke-width="2" stroke-linecap="round" stroke-linejoin="round" stroke-miterlimit="10" x1="203.44" y1="279.52" x2="90.04" y2="344.98"/>
		
			<polyline fill="none" stroke="#000000" stroke-width="2" stroke-linecap="round" stroke-linejoin="round" stroke-miterlimit="10" points="
			90.1,344.98 90.04,344.98 81.58,344.98 81.52,344.98 		"/>
		
			<polyline fill="none" stroke="#000000" stroke-width="2" stroke-linecap="round" stroke-linejoin="round" stroke-miterlimit="10" points="
			81.58,344.98 78.73,346.581 78.7,346.6 		"/>
		
			<line fill="none" stroke="#000000" stroke-width="2" stroke-linecap="round" stroke-linejoin="round" stroke-miterlimit="10" x1="81.58" y1="344.98" x2="81.58" y2="353.14"/>
		
			<polyline fill="none" stroke="#000000" stroke-width="2" stroke-linecap="round" stroke-linejoin="round" stroke-miterlimit="10" points="
			90.1,344.98 90.1,353.11 90.1,353.14 		"/>
		
			<polyline fill="none" stroke="#000000" stroke-width="2" stroke-linecap="round" stroke-linejoin="round" stroke-miterlimit="10" points="
			78.76,346.6 78.76,354.791 78.76,354.82 		"/>
		
			<polyline fill="none" stroke="#000000" stroke-width="2" stroke-linecap="round" stroke-linejoin="round" stroke-miterlimit="10" points="
			292.72,232.9 207.67,281.96 207.64,281.98 		"/>
		
			<polyline fill="none" stroke="#000000" stroke-width="2" stroke-linecap="round" stroke-linejoin="round" stroke-miterlimit="10" points="
			207.7,281.98 207.67,281.96 203.45,279.5 203.38,279.46 		"/>
		
			<polyline fill="none" stroke="#000000" stroke-width="2" stroke-linecap="round" stroke-linejoin="round" stroke-miterlimit="10" points="
			90.1,353.14 90.04,353.14 81.58,353.14 81.52,353.14 		"/>
		
			<polyline fill="none" stroke="#000000" stroke-width="2" stroke-linecap="round" stroke-linejoin="round" stroke-miterlimit="10" points="
			81.58,353.14 78.76,354.791 78.73,354.8 78.7,354.82 		"/>
		
			<polyline fill="none" stroke="#000000" stroke-width="2" stroke-linecap="round" stroke-linejoin="round" stroke-miterlimit="10" points="
			203.44,287.74 90.1,353.11 90.04,353.14 		"/>
		
			<polyline fill="none" stroke="#000000" stroke-width="2" stroke-linecap="round" stroke-linejoin="round" stroke-miterlimit="10" points="
			207.7,281.98 207.7,290.11 207.7,290.14 		"/>
		
			<polyline fill="none" stroke="#000000" stroke-width="2" stroke-linecap="round" stroke-linejoin="round" stroke-miterlimit="10" points="
			207.7,290.14 207.67,290.121 203.44,287.71 203.38,287.68 		"/>
		
			<polyline fill="none" stroke="#000000" stroke-width="2" stroke-linecap="round" stroke-linejoin="round" stroke-miterlimit="10" points="
			78.76,354.82 78.73,354.8 73.06,351.5 73,351.46 		"/>
		
			<polyline fill="none" stroke="#000000" stroke-width="2" stroke-linecap="round" stroke-linejoin="round" stroke-miterlimit="10" points="
			292.72,241.06 273.33,252.25 207.7,290.11 207.67,290.121 207.64,290.14 		"/>
		
			<polyline fill="none" stroke="#000000" stroke-width="2" stroke-linecap="round" stroke-linejoin="round" stroke-miterlimit="10" points="
			185.02,268.9 185.02,273.76 185.02,273.82 		"/>
		
			<polyline fill="none" stroke="#000000" stroke-width="2" stroke-linecap="round" stroke-linejoin="round" stroke-miterlimit="10" points="
			73.06,343.36 73.06,351.5 73.06,351.52 		"/>
		
			<polyline fill="none" stroke="#000000" stroke-width="2" stroke-linecap="round" stroke-linejoin="round" stroke-miterlimit="10" points="
			39.94,316 149.02,253 153.23,250.57 153.28,250.541 		"/>
		
			<polyline fill="none" stroke="#000000" stroke-width="2" stroke-linecap="round" stroke-linejoin="round" stroke-miterlimit="10" points="
			153.28,250.6 153.23,250.57 149.04,248.13 148.96,248.081 		"/>
		
			<polyline fill="none" stroke="#000000" stroke-width="2" stroke-linecap="round" stroke-linejoin="round" stroke-miterlimit="10" points="
			42.76,325.84 42.73,325.82 37.08,322.53 37,322.48 		"/>
		
			<polyline fill="none" stroke="#000000" stroke-width="2" stroke-linecap="round" stroke-linejoin="round" stroke-miterlimit="10" points="
			37.06,322.541 37.08,322.53 39.94,320.86 		"/>
		
			<polyline fill="none" stroke="#000000" stroke-width="2" stroke-linecap="round" stroke-linejoin="round" stroke-miterlimit="10" points="
			39.94,320.92 39.94,320.86 39.94,316 39.94,315.94 		"/>
		
			<polyline fill="none" stroke="#000000" stroke-width="2" stroke-linecap="round" stroke-linejoin="round" stroke-miterlimit="10" points="
			149.02,248.14 149.04,248.13 207.54,214.28 226.87,203.09 233.99,198.97 234.04,198.94 		"/>
		
			<polyline fill="none" stroke="#000000" stroke-width="2" stroke-linecap="round" stroke-linejoin="round" stroke-miterlimit="10" points="
			167.44,258.76 167.44,266.9 167.44,266.92 		"/>
		
			<line fill="none" stroke="#000000" stroke-width="2" stroke-linecap="round" stroke-linejoin="round" stroke-miterlimit="10" x1="167.44" y1="258.76" x2="54.04" y2="324.22"/>
		
			<polyline fill="none" stroke="#000000" stroke-width="2" stroke-linecap="round" stroke-linejoin="round" stroke-miterlimit="10" points="
			54.1,324.22 54.04,324.22 45.58,324.22 45.52,324.22 		"/>
		
			<polyline fill="none" stroke="#000000" stroke-width="2" stroke-linecap="round" stroke-linejoin="round" stroke-miterlimit="10" points="
			45.58,324.22 42.73,325.82 42.7,325.84 		"/>
		
			<line fill="none" stroke="#000000" stroke-width="2" stroke-linecap="round" stroke-linejoin="round" stroke-miterlimit="10" x1="45.58" y1="324.22" x2="45.58" y2="332.38"/>
		
			<polyline fill="none" stroke="#000000" stroke-width="2" stroke-linecap="round" stroke-linejoin="round" stroke-miterlimit="10" points="
			54.1,324.22 54.1,332.35 54.1,332.38 		"/>
		
			<polyline fill="none" stroke="#000000" stroke-width="2" stroke-linecap="round" stroke-linejoin="round" stroke-miterlimit="10" points="
			42.76,325.84 42.76,333.97 42.76,334 		"/>
		
			<polyline fill="none" stroke="#000000" stroke-width="2" stroke-linecap="round" stroke-linejoin="round" stroke-miterlimit="10" points="
			256.72,212.14 171.67,261.2 171.64,261.22 		"/>
		
			<polyline fill="none" stroke="#000000" stroke-width="2" stroke-linecap="round" stroke-linejoin="round" stroke-miterlimit="10" points="
			171.7,261.22 171.67,261.2 167.45,258.74 167.38,258.7 		"/>
		
			<polyline fill="none" stroke="#000000" stroke-width="2" stroke-linecap="round" stroke-linejoin="round" stroke-miterlimit="10" points="
			54.1,332.38 54.04,332.38 45.58,332.38 45.52,332.38 		"/>
		
			<polyline fill="none" stroke="#000000" stroke-width="2" stroke-linecap="round" stroke-linejoin="round" stroke-miterlimit="10" points="
			45.58,332.38 42.76,333.97 42.73,333.98 42.7,334 		"/>
		
			<polyline fill="none" stroke="#000000" stroke-width="2" stroke-linecap="round" stroke-linejoin="round" stroke-miterlimit="10" points="
			167.44,266.92 54.1,332.35 54.04,332.38 		"/>
		
			<polyline fill="none" stroke="#000000" stroke-width="2" stroke-linecap="round" stroke-linejoin="round" stroke-miterlimit="10" points="
			171.7,261.22 171.7,269.35 171.7,269.38 		"/>
		
			<polyline fill="none" stroke="#000000" stroke-width="2" stroke-linecap="round" stroke-linejoin="round" stroke-miterlimit="10" points="
			171.7,269.38 171.67,269.36 167.44,266.9 167.38,266.86 		"/>
		
			<polyline fill="none" stroke="#000000" stroke-width="2" stroke-linecap="round" stroke-linejoin="round" stroke-miterlimit="10" points="
			42.76,334 42.73,333.98 37.06,330.73 37,330.7 		"/>
		
			<polyline fill="none" stroke="#000000" stroke-width="2" stroke-linecap="round" stroke-linejoin="round" stroke-miterlimit="10" points="
			256.72,220.3 237.33,231.49 171.7,269.35 171.67,269.36 171.64,269.38 		"/>
		
			<line fill="none" stroke="#000000" stroke-width="2" stroke-linecap="round" stroke-linejoin="round" stroke-miterlimit="10" x1="149.02" y1="248.14" x2="149.02" y2="253"/>
		
			<polyline fill="none" stroke="#000000" stroke-width="2" stroke-linecap="round" stroke-linejoin="round" stroke-miterlimit="10" points="
			37.06,322.541 37.06,330.73 37.06,330.76 		"/>
		
			<polyline fill="none" stroke="#000000" stroke-width="2" stroke-linecap="round" stroke-linejoin="round" stroke-miterlimit="10" points="
			3.94,295.24 113.02,232.18 117.23,229.75 117.28,229.72 		"/>
		
			<polyline fill="none" stroke="#000000" stroke-width="2" stroke-linecap="round" stroke-linejoin="round" stroke-miterlimit="10" points="
			117.28,229.78 117.23,229.75 113.04,227.31 112.96,227.26 		"/>
		
			<polyline fill="none" stroke="#000000" stroke-width="2" stroke-linecap="round" stroke-linejoin="round" stroke-miterlimit="10" points="
			6.76,305.081 6.73,305.06 1.08,301.77 1,301.72 		"/>
		
			<polyline fill="none" stroke="#000000" stroke-width="2" stroke-linecap="round" stroke-linejoin="round" stroke-miterlimit="10" points="
			1.06,301.78 1.08,301.77 3.94,300.1 		"/>
		
			<polyline fill="none" stroke="#000000" stroke-width="2" stroke-linecap="round" stroke-linejoin="round" stroke-miterlimit="10" points="
			3.94,300.16 3.94,300.1 3.94,295.24 3.94,295.18 		"/>
		
			<polyline fill="none" stroke="#000000" stroke-width="2" stroke-linecap="round" stroke-linejoin="round" stroke-miterlimit="10" points="
			113.02,227.32 113.04,227.31 179,189.18 190.92,182.3 197.99,178.21 198.04,178.18 		"/>
		
			<polyline fill="none" stroke="#000000" stroke-width="2" stroke-linecap="round" stroke-linejoin="round" stroke-miterlimit="10" points="
			131.44,238 131.44,246.14 131.44,246.16 		"/>
		
			<line fill="none" stroke="#000000" stroke-width="2" stroke-linecap="round" stroke-linejoin="round" stroke-miterlimit="10" x1="131.44" y1="238" x2="18.04" y2="303.4"/>
		
			<polyline fill="none" stroke="#000000" stroke-width="2" stroke-linecap="round" stroke-linejoin="round" stroke-miterlimit="10" points="
			18.1,303.4 18.04,303.4 9.58,303.4 9.52,303.4 		"/>
		
			<polyline fill="none" stroke="#000000" stroke-width="2" stroke-linecap="round" stroke-linejoin="round" stroke-miterlimit="10" points="
			9.58,303.4 6.73,305.06 6.7,305.081 		"/>
		
			<line fill="none" stroke="#000000" stroke-width="2" stroke-linecap="round" stroke-linejoin="round" stroke-miterlimit="10" x1="9.58" y1="303.4" x2="9.58" y2="311.621"/>
		
			<polyline fill="none" stroke="#000000" stroke-width="2" stroke-linecap="round" stroke-linejoin="round" stroke-miterlimit="10" points="
			18.1,303.4 18.1,311.59 18.1,311.621 		"/>
		
			<polyline fill="none" stroke="#000000" stroke-width="2" stroke-linecap="round" stroke-linejoin="round" stroke-miterlimit="10" points="
			6.76,305.081 6.76,313.21 6.76,313.24 		"/>
		
			<polyline fill="none" stroke="#000000" stroke-width="2" stroke-linecap="round" stroke-linejoin="round" stroke-miterlimit="10" points="
			220.72,191.32 135.67,240.38 135.64,240.4 		"/>
		
			<polyline fill="none" stroke="#000000" stroke-width="2" stroke-linecap="round" stroke-linejoin="round" stroke-miterlimit="10" points="
			135.7,240.4 135.67,240.38 131.45,237.98 131.38,237.94 		"/>
		
			<polyline fill="none" stroke="#000000" stroke-width="2" stroke-linecap="round" stroke-linejoin="round" stroke-miterlimit="10" points="
			18.1,311.621 18.04,311.621 9.58,311.621 9.52,311.621 		"/>
		
			<polyline fill="none" stroke="#000000" stroke-width="2" stroke-linecap="round" stroke-linejoin="round" stroke-miterlimit="10" points="
			9.58,311.621 6.76,313.21 6.73,313.22 6.7,313.24 		"/>
		
			<polyline fill="none" stroke="#000000" stroke-width="2" stroke-linecap="round" stroke-linejoin="round" stroke-miterlimit="10" points="
			131.44,246.16 18.1,311.59 18.04,311.621 		"/>
		
			<polyline fill="none" stroke="#000000" stroke-width="2" stroke-linecap="round" stroke-linejoin="round" stroke-miterlimit="10" points="
			135.7,240.4 135.7,248.59 135.7,248.621 		"/>
		
			<polyline fill="none" stroke="#000000" stroke-width="2" stroke-linecap="round" stroke-linejoin="round" stroke-miterlimit="10" points="
			135.7,248.621 135.67,248.6 131.44,246.14 131.38,246.1 		"/>
		
			<polyline fill="none" stroke="#000000" stroke-width="2" stroke-linecap="round" stroke-linejoin="round" stroke-miterlimit="10" points="
			6.76,313.24 6.73,313.22 1.06,309.92 1,309.88 		"/>
		
			<polyline fill="none" stroke="#000000" stroke-width="2" stroke-linecap="round" stroke-linejoin="round" stroke-miterlimit="10" points="
			220.72,199.54 201.38,210.7 135.7,248.59 135.67,248.6 135.64,248.621 		"/>
		
			<polyline fill="none" stroke="#000000" stroke-width="2" stroke-linecap="round" stroke-linejoin="round" stroke-miterlimit="10" points="
			113.02,227.32 113.02,232.18 113.02,232.24 		"/>
		
			<polyline fill="none" stroke="#000000" stroke-width="2" stroke-linecap="round" stroke-linejoin="round" stroke-miterlimit="10" points="
			1.06,301.78 1.06,309.92 1.06,309.94 		"/>
		
			<polyline fill="none" stroke="#000000" stroke-width="2" stroke-linecap="round" stroke-linejoin="round" stroke-miterlimit="10" points="
			443.74,152.38 504.02,117.53 504.04,117.52 		"/>
		
			<polyline fill="none" stroke="#000000" stroke-width="2" stroke-linecap="round" stroke-linejoin="round" stroke-miterlimit="10" points="
			362.319,15.34 302.069,50.11 302.02,50.14 		"/>
		
			<line fill="none" stroke="#000000" stroke-width="2" stroke-linecap="round" stroke-linejoin="round" stroke-miterlimit="10" x1="504" y1="97.15" x2="503.979" y2="97.18"/>
		
			<polyline fill="none" stroke="#000000" stroke-width="2" stroke-linecap="round" stroke-linejoin="round" stroke-miterlimit="10" points="
			528.819,66.52 504.02,97.13 504.01,97.14 		"/>
		<path fill="none" stroke="#000000" stroke-width="2" stroke-linecap="round" stroke-linejoin="round" stroke-miterlimit="10" d="
			M388,71.8c15.03-17.19,56.84-17.17,71.88,0"/>
		
			<line fill="none" stroke="#000000" stroke-width="2" stroke-linecap="round" stroke-linejoin="round" stroke-miterlimit="10" x1="362.319" y1="15.34" x2="415.42" y2="1.06"/>
		
			<polyline fill="none" stroke="#000000" stroke-width="2" stroke-linecap="round" stroke-linejoin="round" stroke-miterlimit="10" points="
			504.04,97.18 504.04,117.51 504.04,117.52 504.04,117.58 		"/>
		
			<line fill="none" stroke="#000000" stroke-width="2" stroke-linecap="round" stroke-linejoin="round" stroke-miterlimit="10" x1="528.819" y1="66.52" x2="528.819" y2="86.92"/>
		
			<polyline fill="none" stroke="#000000" stroke-width="2" stroke-linecap="round" stroke-linejoin="round" stroke-miterlimit="10" points="
			528.819,86.92 504.04,117.51 504.02,117.53 503.979,117.58 		"/>
		
			<polyline fill="none" stroke="#000000" stroke-width="2" stroke-linecap="round" stroke-linejoin="round" stroke-miterlimit="10" points="
			528.819,66.52 415.43,1.04 415.359,1 		"/>
		
			<polyline fill="none" stroke="#000000" stroke-width="2" stroke-linecap="round" stroke-linejoin="round" stroke-miterlimit="10" points="
			443.74,131.92 504,97.15 504.01,97.14 504.02,97.13 504.04,97.12 		"/>
		
			<line fill="none" stroke="#000000" stroke-width="2" stroke-linecap="round" stroke-linejoin="round" stroke-miterlimit="10" x1="429.58" y1="123.76" x2="443.689" y2="131.89"/>
		
			<polyline fill="none" stroke="#000000" stroke-width="2" stroke-linecap="round" stroke-linejoin="round" stroke-miterlimit="10" points="
			344.56,172.84 375.66,154.86 429.55,123.72 429.58,123.7 		"/>
		
			<line fill="none" stroke="#000000" stroke-width="2" stroke-linecap="round" stroke-linejoin="round" stroke-miterlimit="10" x1="231.22" y1="107.38" x2="344.53" y2="172.82"/>
		<path fill="none" stroke="#000000" stroke-width="2" stroke-linecap="round" stroke-linejoin="round" stroke-miterlimit="10" d="
			M383.859,61.6c0.641-16.84,25.811-23.37,39.301-23.16c13.68-0.46,39.06,5.52,40.8,22.26c0.12,4.34-1.44,8.04-4.05,11.13
			c-7.521,8.91-23.771,12.83-33.63,12.87c-11.03,0.68-29.99-2.86-38.32-12.87C385.58,68.97,384.069,65.57,383.859,61.6"/>
		
			<polyline fill="none" stroke="#000000" stroke-width="2" stroke-linecap="round" stroke-linejoin="round" stroke-miterlimit="10" points="
			316.24,58.3 231.21,107.35 231.16,107.38 		"/>
		
			<polyline fill="none" stroke="#000000" stroke-width="2" stroke-linecap="round" stroke-linejoin="round" stroke-miterlimit="10" points="
			176.08,165.58 176.68,174.07 176.68,174.1 		"/>
		
			<line fill="none" stroke="#000000" stroke-width="2" stroke-linecap="round" stroke-linejoin="round" stroke-miterlimit="10" x1="176.08" y1="165.58" x2="176.08" y2="143.32"/>
		
			<polyline fill="none" stroke="#000000" stroke-width="2" stroke-linecap="round" stroke-linejoin="round" stroke-miterlimit="10" points="
			177.64,121.96 176.08,143.26 176.08,143.32 		"/>
		
			<polyline fill="none" stroke="#000000" stroke-width="2" stroke-linecap="round" stroke-linejoin="round" stroke-miterlimit="10" points="
			176.68,174.1 179,189.18 179.02,189.28 		"/>
		
			<line fill="none" stroke="#000000" stroke-width="2" stroke-linecap="round" stroke-linejoin="round" stroke-miterlimit="10" x1="234.04" y1="199" x2="256.72" y2="212.14"/>
		
			<polyline fill="none" stroke="#000000" stroke-width="2" stroke-linecap="round" stroke-linejoin="round" stroke-miterlimit="10" points="
			256.72,212.14 256.72,220.27 256.72,220.3 		"/>
		
			<polyline fill="none" stroke="#000000" stroke-width="2" stroke-linecap="round" stroke-linejoin="round" stroke-miterlimit="10" points="
			292.72,232.9 292.72,241.03 292.72,241.06 		"/>
		
			<line fill="none" stroke="#000000" stroke-width="2" stroke-linecap="round" stroke-linejoin="round" stroke-miterlimit="10" x1="292.72" y1="232.9" x2="314.68" y2="245.56"/>
		
			<polyline fill="none" stroke="#000000" stroke-width="2" stroke-linecap="round" stroke-linejoin="round" stroke-miterlimit="10" points="
			256.72,212.14 269.99,219.791 270.04,219.82 		"/>
		
			<polyline fill="none" stroke="#000000" stroke-width="2" stroke-linecap="round" stroke-linejoin="round" stroke-miterlimit="10" points="
			220.72,191.32 233.99,198.97 234.04,199 		"/>
		
			<line fill="none" stroke="#000000" stroke-width="2" stroke-linecap="round" stroke-linejoin="round" stroke-miterlimit="10" x1="270.04" y1="219.82" x2="292.72" y2="232.9"/>
		
			<line fill="none" stroke="#000000" stroke-width="2" stroke-linecap="round" stroke-linejoin="round" stroke-miterlimit="10" x1="198.04" y1="178.24" x2="220.72" y2="191.32"/>
		
			<polyline fill="none" stroke="#000000" stroke-width="2" stroke-linecap="round" stroke-linejoin="round" stroke-miterlimit="10" points="
			220.72,191.32 220.72,199.51 220.72,199.54 		"/>
		
			<polyline fill="none" stroke="#000000" stroke-width="2" stroke-linecap="round" stroke-linejoin="round" stroke-miterlimit="10" points="
			176.08,165.58 197.99,178.21 198.04,178.24 		"/>
		
			<polyline fill="none" stroke="#000000" stroke-width="2" stroke-linecap="round" stroke-linejoin="round" stroke-miterlimit="10" points="
			207.58,214.3 207.54,214.28 201.38,210.7 201.28,210.64 		"/>
		
			<polyline fill="none" stroke="#000000" stroke-width="2" stroke-linecap="round" stroke-linejoin="round" stroke-miterlimit="10" points="
			243.58,235.121 243.52,235.09 237.33,231.49 237.28,231.46 		"/>
		
			<polyline fill="none" stroke="#000000" stroke-width="2" stroke-linecap="round" stroke-linejoin="round" stroke-miterlimit="10" points="
			314.08,275.8 314.05,275.78 273.33,252.25 273.28,252.22 		"/>
		
			<polyline fill="none" stroke="#000000" stroke-width="2" stroke-linecap="round" stroke-linejoin="round" stroke-miterlimit="10" points="
			319.359,203.8 443.689,131.89 443.74,131.86 		"/>
		
			<polyline fill="none" stroke="#000000" stroke-width="2" stroke-linecap="round" stroke-linejoin="round" stroke-miterlimit="10" points="
			443.74,131.92 443.74,152.32 443.74,152.38 		"/>
		
			<line fill="none" stroke="#000000" stroke-width="2" stroke-linecap="round" stroke-linejoin="round" stroke-miterlimit="10" x1="317.8" y1="225.16" x2="443.74" y2="152.32"/>
		
			<polyline fill="none" stroke="#000000" stroke-width="2" stroke-linecap="round" stroke-linejoin="round" stroke-miterlimit="10" points="
			443.74,131.92 443.689,131.89 429.55,123.72 429.52,123.7 		"/>
		
			<line fill="none" stroke="#000000" stroke-width="2" stroke-linecap="round" stroke-linejoin="round" stroke-miterlimit="10" x1="443.74" y1="152.38" x2="434.08" y2="206.5"/>
		
			<polyline fill="none" stroke="#000000" stroke-width="2" stroke-linecap="round" stroke-linejoin="round" stroke-miterlimit="10" points="
			434.08,206.5 314.08,275.77 314.05,275.78 314.02,275.8 		"/>
		
			<polyline fill="none" stroke="#000000" stroke-width="2" stroke-linecap="round" stroke-linejoin="round" stroke-miterlimit="10" points="
			344.56,172.84 344.53,172.82 231.21,107.35 231.16,107.32 		"/>
		
			<line fill="none" stroke="#000000" stroke-width="2" stroke-linecap="round" stroke-linejoin="round" stroke-miterlimit="10" x1="314.68" y1="245.56" x2="317.8" y2="225.1"/>
		
			<line fill="none" stroke="#000000" stroke-width="2" stroke-linecap="round" stroke-linejoin="round" stroke-miterlimit="10" x1="177.64" y1="121.96" x2="319.359" y2="203.8"/>
		
			<polyline fill="none" stroke="#000000" stroke-width="2" stroke-linecap="round" stroke-linejoin="round" stroke-miterlimit="10" points="
			429.58,123.76 375.66,154.86 344.53,172.82 344.5,172.84 		"/>
		
			<line fill="none" stroke="#000000" stroke-width="2" stroke-linecap="round" stroke-linejoin="round" stroke-miterlimit="10" x1="314.68" y1="245.56" x2="314.08" y2="253.42"/>
		
			<polyline fill="none" stroke="#000000" stroke-width="2" stroke-linecap="round" stroke-linejoin="round" stroke-miterlimit="10" points="
			319.359,203.8 317.8,225.1 317.8,225.16 		"/>
		
			<polyline fill="none" stroke="#000000" stroke-width="2" stroke-linecap="round" stroke-linejoin="round" stroke-miterlimit="10" points="
			314.08,253.42 314.08,275.77 314.08,275.8 		"/>
		
			<polyline fill="none" stroke="#000000" stroke-width="2" stroke-linecap="round" stroke-linejoin="round" stroke-miterlimit="10" points="
			314.08,253.42 292.72,241.03 292.66,241 		"/>
		
			<polyline fill="none" stroke="#000000" stroke-width="2" stroke-linecap="round" stroke-linejoin="round" stroke-miterlimit="10" points="
			190.96,182.32 190.92,182.3 176.68,174.07 176.62,174.04 		"/>
		
			<polyline fill="none" stroke="#000000" stroke-width="2" stroke-linecap="round" stroke-linejoin="round" stroke-miterlimit="10" points="
			226.96,203.14 226.87,203.09 220.72,199.51 220.66,199.48 		"/>
		
			<polyline fill="none" stroke="#000000" stroke-width="2" stroke-linecap="round" stroke-linejoin="round" stroke-miterlimit="10" points="
			262.96,223.9 262.92,223.88 256.72,220.27 256.66,220.24 		"/>
		
			<polyline fill="none" stroke="#000000" stroke-width="2" stroke-linecap="round" stroke-linejoin="round" stroke-miterlimit="10" points="
			177.64,121.96 302.01,50.12 302.08,50.08 		"/>
		
			<line fill="none" stroke="#000000" stroke-width="2" stroke-linecap="round" stroke-linejoin="round" stroke-miterlimit="10" x1="302.08" y1="50.14" x2="316.24" y2="58.3"/>
	</g>
</g>
</svg>
